<?xml version="1.0" encoding="UTF-8"?><svg x="0" y="0" width="700px" height="325px" viewBox="0 0 700 325" style="font-family:Arial, Helvetica, sans-serif" xmlns="http://www.w3.org/2000/svg" xmlns:xlink="http://www.w3.org/1999/xlink"><!-- Header of plot--><text x="10" y="15" fill="black" style="font-weight:bold">Study</text><text x="275" y="15" fill="black" style="font-weight:bold">Sensitivity (%)</text><text x="500" y="15" fill="black" style="font-weight:bold">Specificity (%)</text><!-- Start of studies--><a xlink:href="http://pubmed.gov/20636154" xlink:title="Study size is 834. Prevalence of the outcome is 9%. Click citation to open abstract at PubMed in a new window." target="_blank"><text x="10" y="35" fill="rgba(0,0,255,1)">Moss, 2010</text></a><text x="225" y="35" fill="black" style="font-weight:normal">75 (63 - 83)</text><circle cx="399.647887323944" cy="30" r="3" stroke-width="0" style="fill:black;"></circle><line x1="388.446074646439" y1="30" x2="408.319448836813" y2="30" style="stroke:rgba(0,0,0,1);stroke-width:2" ></line><text x="450" y="35" fill="black" style="font-weight:normal">90 (88 - 92)</text><circle cx="640.170380078637" cy="30" r="3" stroke-width="0" style="fill:black;"></circle><line x1="637.852410587404" y1="30" x2="642.085886038174" y2="30" style="stroke:rgba(0,0,0,1);stroke-width:2" ></line><a xlink:href="http://pubmed.gov/18596118" xlink:title="Study size is 156. Prevalence of the outcome is 20%. Click citation to open abstract at PubMed in a new window." target="_blank"><text x="10" y="55" fill="rgba(0,0,255,1)">Moss, 2008</text></a><text x="225" y="55" fill="black" style="font-weight:normal">61 (44 - 76)</text><circle cx="386.290322580645" cy="50" r="3" stroke-width="0" style="fill:black;"></circle><line x1="368.824108619661" y1="50" x2="401.26689857962" y2="50" style="stroke:rgba(0,0,0,1);stroke-width:2" ></line><text x="450" y="55" fill="black" style="font-weight:normal">81 (73 - 87)</text><circle cx="630.8" cy="50" r="3" stroke-width="0" style="fill:black;"></circle><line x1="623.018908737831" y1="50" x2="636.744463009736" y2="50" style="stroke:rgba(0,0,0,1);stroke-width:2" ></line><a xlink:href="http://pubmed.gov/26054631" xlink:title="Study size is 2361. Prevalence of the outcome is 47%. Click citation to open abstract at PubMed in a new window." target="_blank"><text x="10" y="75" fill="rgba(0,0,255,1)">Hamano, 2015</text></a><text x="225" y="75" fill="black" style="font-weight:normal">96 (94 - 97)</text><circle cx="420.605381165919" cy="70" r="3" stroke-width="0" style="fill:black;"></circle><line x1="419.237572185281" y1="70" x2="421.660024787213" y2="70" style="stroke:rgba(0,0,0,1);stroke-width:2" ></line><text x="450" y="75" fill="black" style="font-weight:normal">37 (34 - 40)</text><circle cx="586.998394863563" cy="70" r="3" stroke-width="0" style="fill:black;"></circle><line x1="584.361430614439" y1="70" x2="589.71528145865" y2="70" style="stroke:rgba(0,0,0,1);stroke-width:2" ></line><!-- Bottom of plot--><!-- Axes --><g style="stroke:rgba(0,0,0,0.2);stroke-width:2"><line x1="325" y1="85" x2="425" y2="85" ></line><line x1="550" y1="85" x2="650" y2="85" ></line></g><!-- Ticks --><g stroke="rgba(0,0,0,0.2)" stroke-width="1" fill="rgba(0,0,0,0.2)"><g transform="translate(400, 245) rotate(180)"><path d="M 0,0 L 0,5 M 50,0 L 50,5 M 100,0 L 100,5" ></path></g><g transform="translate(650, 245) rotate(180)"><path d="M 0,0 L 0,5 M 50,0 L 50,5 M 100,0 L 100,5" ></path></g></g><!-- Vertical summary lines --><g style="stroke:rgba(0,0,0,0.2);stroke-width:2" ><line x1="418.508627763588" y1="25" x2="418.508627763588" y2="85" ></line><line x1="608.575445177142" y1="25" x2="608.575445177142" y2="85"></line></g><!-- Summary text --><g fill="black" style="color:black;opacity:1"><text x="10" y="100" style="font-weight:bold">Summary</text><text x="225" y="100" fill="black" style="font-weight:bold">94 (92 - 95)</text><text x="408.508627763588" y="100" fill="black" style="font-weight:bold">94</text><text x="450" y="100" fill="black" style="font-weight:bold">59 (56 - 61)</text><text x="598.575445177142" y="100" fill="black" style="font-weight:bold">59</text><text x="10" y="120" fill="black" style="font-weight:bold">Likelihood ratios: positive 2.3; negative 0.1</text><text x="10" y="135">(hierarchical bivariate model)</text><text x="10" y="155" style="font-weight:bold">Area under the ROC curve: 0.921</text><text x="10" y="175" style="font-weight:bold">Heterogeneity: 24.2%</text><text x="10" y="190" style="font-weight:normal">(For diagnostic odds ratio: Q = 2.6, DF = 2)</text><text x="10" y="210" style="font-weight:bold">Predictive values:</text><text x="10" y="230">At the prevalences studied (pooled 36%, median 20, range 9 - 47, odds 0.57):</text><text x="20" y="245">Positive 56.3%; 1- negative 5.9%</text><a xlink:href="http://sumsearch.org/calc/calc.aspx?calc_dx_SnSp.aspx?prevalence=36&sensitivity=94&specificity=59" xlink:title="Adjust prevalence and recalculate predictive values" target="_blank"><text x="20" y="260" fill="rgba(0,0,255,1)" style="font-weight:normal;text-decoration:underline;">Click here to recalculate predictive values at other prevalences</text></a><!-- About the studies --><text x="10" y="285" style="font-weight:bold">About the studies:</text><text x="10" y="305">3351 persons (median 834, range 156 - 2361) in 3 studies.</text><text x="10" y="320">1217 persons with the outcome (median 71, range 31 - 1115).</text></g> Sorry, your browser does not support inline SVG for dynamic graphics.</svg>
